<?xml version="1.0" encoding="UTF-8"?>
<svg id="Camada_1" data-name="Camada 1" xmlns="http://www.w3.org/2000/svg" xmlns:xlink="http://www.w3.org/1999/xlink" viewBox="0 0 271.54 271.55">
  <defs>
    <clipPath id="clippath">
      <path d="M157.21,271.37c8.25-5.64,15.05-12,20.16-20.06,5.51-8.7,8.48-18.19,9.45-28.41,.96-10.19,.4-20.19-3.32-29.83-4.3-11.16-11.33-20.24-21.99-25.76-6.44-3.34-13.42-5.8-20.38-7.94-11.73-3.6-23.66-6.57-35.47-9.93-6.17-1.75-11.96-4.27-16.6-8.98-6.77-6.89-5.42-18.84,2.02-24.71,5.21-4.11,11.21-5.75,17.74-5.98,14.77-.53,28.06,4.44,40.98,10.84,4.06,2.01,8.04,4.21,12.06,6.31,.53,.28,1.08,.51,1.69,.79,.2-.48,.38-.84,.5-1.21,4.98-14.5,9.94-29,15.02-43.8-3.66-1.64-7.29-3.25-10.9-4.89-10.39-4.72-21.3-7.79-32.43-10.03-4.1-.82-8.32-1.19-12.51-1.4-8.35-.41-16.72-1.03-25.06-.74-17.64,.61-34.59,4.27-50.03,13.35-11.29,6.64-20.74,15.14-26.83,26.93-3.87,7.5-5.81,15.51-6.16,23.98-.33,8.15,.49,16.07,3.49,23.66,4.62,11.68,13.06,19.92,23.68,26.26,8.76,5.23,18.36,8.26,28.07,10.99,8.71,2.45,17.52,4.53,26.22,7.02,3.69,1.06,7.31,2.53,10.77,4.19,5.45,2.62,7.97,7.17,8.18,13.24,.29,8.58-3.7,14.64-10.7,19.03-5.35,3.35-11.29,4.87-17.52,5.21-17.94,.96-34.09-4.61-49.2-13.77-4.46-2.7-8.82-5.56-13.53-8.54-3.45,10.42-6.85,20.7-10.46,31.58-1.94-2.75-3.8-5.02-5.26-7.54C2.8,230.76,0,219.47,.04,207.26c.16-48.91,0-97.82,.12-146.73,.03-12.24,3.99-23.39,10.93-33.48,6.71-9.77,15.51-17.02,26.34-21.76C46.14,1.47,55.26,0,64.79,.02c48.78,.12,97.55-.01,146.32,.12,12.21,.03,23.31,4.03,33.41,10.9,10.01,6.81,17.32,15.87,22.1,26.88,2.99,6.88,4.81,14.18,4.82,21.75,.04,50.75,.1,101.51-.04,152.26-.03,11.15-3.63,21.42-9.63,30.82-6.46,10.12-15.16,17.72-25.98,22.85-7.42,3.52-15.27,5.73-23.51,5.8-17.87,.15-35.74,.05-53.62,.06-.32,0-.64-.04-1.46-.09m12.36-207.16c20.6,5.74,31.72,19.86,36.2,40.15,4.4-20.38,15.63-34.38,36.2-40.18-9.52-2.72-17.71-7.26-24.14-14.66-6.36-7.31-9.98-15.94-12.05-25.43-4.5,20.27-15.61,34.31-36.22,40.11ZM236.33,23.2c-1.23,4.96-4.01,8.22-9.13,10.02,5.09,1.9,7.94,5.05,9.32,9.84,1.68-4.54,4.3-8.06,8.91-9.59-1.99-1.47-3.97-2.51-5.36-4.08-1.44-1.62-2.31-3.75-3.75-6.19Zm-67.73,11.42c-1.38,2.42-2.2,4.5-3.59,6.08-1.42,1.6-3.41,2.69-5.39,4.2,4.59,1.63,7.23,5.02,8.79,9.57,1.46-4.7,4.23-7.93,8.72-9.85-4.6-1.84-7.19-5.21-8.53-10Zm65.72,57.33c4.81,1.74,7.18,5.39,8.89,9.82,1.39-4.74,4.26-7.93,8.76-9.93-4.8-1.73-7.3-5.27-8.83-9.84-1.56,4.62-4.11,8.12-8.83,9.96Z" fill="#bac4cf" />
    </clipPath>
  </defs>
  <path d="M157.21,271.37c8.25-5.64,15.05-12,20.16-20.06,5.51-8.7,8.48-18.19,9.45-28.41,.96-10.19,.4-20.19-3.32-29.83-4.3-11.16-11.33-20.24-21.99-25.76-6.44-3.34-13.42-5.8-20.38-7.94-11.73-3.6-23.66-6.57-35.47-9.93-6.17-1.75-11.96-4.27-16.6-8.98-6.77-6.89-5.42-18.84,2.02-24.71,5.21-4.11,11.21-5.75,17.74-5.98,14.77-.53,28.06,4.44,40.98,10.84,4.06,2.01,8.04,4.21,12.06,6.31,.53,.28,1.08,.51,1.69,.79,.2-.48,.38-.84,.5-1.21,4.98-14.5,9.94-29,15.02-43.8-3.66-1.64-7.29-3.25-10.9-4.89-10.39-4.72-21.3-7.79-32.43-10.03-4.1-.82-8.32-1.19-12.51-1.4-8.35-.41-16.72-1.03-25.06-.74-17.64,.61-34.59,4.27-50.03,13.35-11.29,6.64-20.74,15.14-26.83,26.93-3.87,7.5-5.81,15.51-6.16,23.98-.33,8.15,.49,16.07,3.49,23.66,4.62,11.68,13.06,19.92,23.68,26.26,8.76,5.23,18.36,8.26,28.07,10.99,8.71,2.45,17.52,4.53,26.22,7.02,3.69,1.06,7.31,2.53,10.77,4.19,5.45,2.62,7.97,7.17,8.18,13.24,.29,8.58-3.7,14.64-10.7,19.03-5.35,3.35-11.29,4.87-17.52,5.21-17.94,.96-34.09-4.61-49.2-13.77-4.46-2.7-8.82-5.56-13.53-8.54-3.45,10.42-6.85,20.7-10.46,31.58-1.94-2.75-3.8-5.02-5.26-7.54C2.8,230.76,0,219.47,.04,207.26c.16-48.91,0-97.82,.12-146.73,.03-12.24,3.99-23.39,10.93-33.48,6.71-9.77,15.51-17.02,26.34-21.76C46.14,1.47,55.26,0,64.79,.02c48.78,.12,97.55-.01,146.32,.12,12.21,.03,23.31,4.03,33.41,10.9,10.01,6.81,17.32,15.87,22.1,26.88,2.99,6.88,4.81,14.18,4.82,21.75,.04,50.75,.1,101.51-.04,152.26-.03,11.15-3.63,21.42-9.63,30.82-6.46,10.12-15.16,17.72-25.98,22.85-7.42,3.52-15.27,5.73-23.51,5.8-17.87,.15-35.74,.05-53.62,.06-.32,0-.64-.04-1.46-.09m12.36-207.16c20.6,5.74,31.72,19.86,36.2,40.15,4.4-20.38,15.63-34.38,36.2-40.18-9.52-2.72-17.71-7.26-24.14-14.66-6.36-7.31-9.98-15.94-12.05-25.43-4.5,20.27-15.61,34.31-36.22,40.11ZM236.33,23.2c-1.23,4.96-4.01,8.22-9.13,10.02,5.09,1.9,7.94,5.05,9.32,9.84,1.68-4.54,4.3-8.06,8.91-9.59-1.99-1.47-3.97-2.51-5.36-4.08-1.44-1.62-2.31-3.75-3.75-6.19Zm-67.73,11.42c-1.38,2.42-2.2,4.5-3.59,6.08-1.42,1.6-3.41,2.69-5.39,4.2,4.59,1.63,7.23,5.02,8.79,9.57,1.46-4.7,4.23-7.93,8.72-9.85-4.6-1.84-7.19-5.21-8.53-10Zm65.72,57.33c4.81,1.74,7.18,5.39,8.89,9.82,1.39-4.74,4.26-7.93,8.76-9.93-4.8-1.73-7.3-5.27-8.83-9.84-1.56,4.62-4.11,8.12-8.83,9.96Z" fill="#bac4cf" />
</svg>