<?xml version="1.0" encoding="UTF-8"?>
<svg id="Camada_2" data-name="Camada 2" xmlns="http://www.w3.org/2000/svg" xmlns:xlink="http://www.w3.org/1999/xlink" viewBox="0 0 402.58 74.27">
  <defs>
    <style>
      .cls-1 {
        fill: none;
      }

      .cls-2 {
        clip-path: url(#clippath);
      }

      .cls-3 {
        fill: url(#Gradiente_Sirius);
      }

      .cls-4 {
        clip-path: url(#clippath-1);
      }

      .cls-5 {
        fill: url(#Gradiente_Sirius-2);
      }
    </style>
    <clipPath id="clippath">
      <path class="cls-1" d="M43,74.24c2.26-1.54,4.12-3.28,5.52-5.49,1.51-2.38,2.32-4.98,2.58-7.77,.26-2.79,.11-5.52-.91-8.16-1.18-3.05-3.1-5.54-6.02-7.05-1.76-.91-3.67-1.59-5.58-2.17-3.21-.99-6.47-1.8-9.7-2.72-1.69-.48-3.27-1.17-4.54-2.46-1.85-1.88-1.48-5.15,.55-6.76,1.43-1.12,3.07-1.57,4.85-1.64,4.04-.14,7.68,1.21,11.21,2.97,1.11,.55,2.2,1.15,3.3,1.73,.14,.08,.3,.14,.46,.22,.06-.13,.1-.23,.14-.33,1.36-3.97,2.72-7.93,4.11-11.98-1-.45-1.99-.89-2.98-1.34-2.84-1.29-5.83-2.13-8.87-2.74-1.12-.23-2.28-.33-3.42-.38-2.28-.11-4.58-.28-6.86-.2-4.83,.17-9.46,1.17-13.69,3.65-3.09,1.82-5.67,4.14-7.34,7.37-1.06,2.05-1.59,4.24-1.68,6.56-.09,2.23,.13,4.4,.96,6.47,1.27,3.19,3.57,5.45,6.48,7.18,2.4,1.43,5.02,2.26,7.68,3.01,2.38,.67,4.79,1.24,7.17,1.92,1.01,.29,2,.69,2.95,1.15,1.49,.72,2.18,1.96,2.24,3.62,.08,2.35-1.01,4.01-2.93,5.21-1.46,.92-3.09,1.33-4.79,1.42-4.91,.26-9.33-1.26-13.46-3.77-1.22-.74-2.41-1.52-3.7-2.34-.94,2.85-1.88,5.66-2.86,8.64-.53-.75-1.04-1.37-1.44-2.06C.76,63.12-.01,60.04,0,56.7c.04-13.38,0-26.76,.03-40.14,0-3.35,1.09-6.4,2.99-9.16,1.84-2.67,4.24-4.66,7.21-5.95C12.61,.4,15.11,0,17.71,0c13.34,.03,26.69,0,40.03,.03,3.34,0,6.38,1.1,9.14,2.98,2.74,1.86,4.74,4.34,6.05,7.35,.82,1.88,1.32,3.88,1.32,5.95,.01,13.89,.03,27.77-.01,41.66,0,3.05-.99,5.86-2.63,8.43-1.77,2.77-4.15,4.85-7.11,6.25-2.03,.96-4.18,1.57-6.43,1.59-4.89,.04-9.78,.02-14.67,.02-.09,0-.18,0-.4-.02m3.38-56.67c5.64,1.57,8.68,5.43,9.9,10.98,1.2-5.58,4.27-9.41,9.9-10.99-2.6-.74-4.84-1.99-6.6-4.01-1.74-2-2.73-4.36-3.3-6.96-1.23,5.55-4.27,9.39-9.91,10.97Zm18.26-11.22c-.34,1.36-1.1,2.25-2.5,2.74,1.39,.52,2.17,1.38,2.55,2.69,.46-1.24,1.18-2.21,2.44-2.62-.54-.4-1.09-.69-1.47-1.12-.39-.44-.63-1.03-1.02-1.69Zm-18.53,3.13c-.38,.66-.6,1.23-.98,1.66-.39,.44-.93,.74-1.47,1.15,1.26,.45,1.98,1.37,2.41,2.62,.4-1.29,1.16-2.17,2.39-2.69-1.26-.5-1.97-1.42-2.33-2.74Zm17.98,15.68c1.32,.48,1.97,1.47,2.43,2.69,.38-1.3,1.17-2.17,2.4-2.72-1.31-.47-2-1.44-2.42-2.69-.43,1.27-1.13,2.22-2.41,2.72Z"/>
    </clipPath>
    <linearGradient id="Gradiente_Sirius" data-name="Gradiente Sirius" x1="72.21" y1="37.49" x2="5.32" y2="36.83" gradientUnits="userSpaceOnUse">
      <stop offset="0" stop-color="#08e9f7"/>
      <stop offset="1" stop-color="#0e4295"/>
    </linearGradient>
    <clipPath id="clippath-1">
      <path class="cls-1" d="M359.91,20.16h12.92l7.15,20.07c.19,.58,.37,1.31,.54,2.2,.17,.89,.32,2.06,.47,3.5l.43-2.74,.65-3.1,7.29-19.92h13.21l-21.15,49.52h-13.43l6.86-14.22-14.94-35.3Zm-21.73,8.52c-2.36,0-4.26,.89-5.7,2.68-1.44,1.78-2.17,4.13-2.17,7.03s.72,5.15,2.17,6.88c1.44,1.74,3.37,2.61,5.77,2.61,1.25,0,2.41-.28,3.47-.83,1.06-.55,1.8-1.28,2.24-2.14,.43-.87,.75-1.82,.94-2.86,.19-1.03,.29-2.41,.29-4.09s-.07-3.03-.22-3.87c-.14-.85-.46-1.64-.94-2.36-1.3-2.03-3.25-3.04-5.85-3.04Zm7.58-4.55v-3.97h11.41V56.62h-11.41v-4.04c-.29,.43-.57,.79-.83,1.06-.26,.28-.45,.46-.54,.55-1.06,1.07-2.5,1.93-4.33,2.56-1.83,.64-3.78,.95-5.85,.95-4.86,0-8.76-1.73-11.69-5.21-2.94-3.47-4.4-8.07-4.4-13.81s1.56-10.08,4.69-13.74c3.13-3.67,7.1-5.5,11.91-5.5,1.78,0,3.68,.31,5.7,.94,1.3,.48,2.25,.93,2.85,1.34,.6,.41,1.43,1.22,2.49,2.42Zm-60.06,14.44v.51c0,2.02,.07,3.39,.22,4.11,.14,.72,.51,1.52,1.08,2.38,.58,.87,1.38,1.56,2.42,2.09,1.03,.53,2.18,.79,3.43,.79,2.36,0,4.25-.85,5.67-2.56,1.42-1.71,2.13-3.98,2.13-6.82s-.72-5.22-2.17-7c-1.44-1.78-3.34-2.67-5.7-2.67-2.6,0-4.52,.96-5.78,2.89-.48,.72-.82,1.53-1.01,2.42-.19,.89-.29,2.18-.29,3.86Zm-11.84,32.62V20.16h11.33v4.33l1.66-1.73c2.6-2.26,5.9-3.39,9.89-3.39,4.86,0,8.78,1.76,11.77,5.28,2.98,3.51,4.48,8.17,4.48,13.96s-1.55,10.18-4.64,13.74c-3.09,3.57-7.09,5.35-11.97,5.35-2.32,0-4.32-.4-5.99-1.18-1.67-.78-3.22-1.95-4.68-3.51v12.69l-11.84,5.49Zm-36.96-16.81l2.8-8.66c2.74,1.93,5,3.08,6.8,3.47,.43,.14,.99,.26,1.66,.36,.67,.1,1.23,.14,1.66,.14,1.73,0,3.13-.39,4.19-1.16,1.06-.77,1.59-1.78,1.59-3.03,0-.96-.29-1.68-.87-2.17-.58-.48-1.68-.94-3.32-1.37l-2.89-.72-3.03-.94c-4.96-1.83-7.44-4.98-7.44-9.46,0-3.51,1.46-6.38,4.37-8.59,2.91-2.21,6.68-3.32,11.3-3.32,1.83,0,3.66,.14,5.49,.43,1.01,.24,1.88,.46,2.6,.65,1.25,.39,2.84,1.03,4.76,1.95l-2.67,7.87c-1.26-.67-2.13-1.13-2.61-1.37-1.17-.58-2.29-1.02-3.38-1.34-1.08-.31-2.19-.47-3.3-.47-1.36,0-2.45,.32-3.3,.97-.85,.65-1.28,1.5-1.28,2.56,0,1.78,1.48,3.03,4.43,3.75l3.04,.79c1.97,.53,3.96,1.23,5.94,2.09,1.44,.82,2.56,1.96,3.37,3.43,.79,1.47,1.19,3.12,1.19,4.94,0,3.95-1.46,7.06-4.37,9.35-2.91,2.29-6.87,3.43-11.87,3.43-2.02,0-4.14-.19-6.35-.58-1.78-.38-3.12-.73-4.01-1.05-.89-.31-2.39-.97-4.51-1.99Zm-4.91-34.22v23.53c0,4.52-1.56,8.01-4.69,10.47-3.13,2.45-7.58,3.68-13.35,3.68s-10.18-1.23-13.35-3.68c-3.18-2.45-4.76-5.94-4.76-10.47V20.16h11.98v21.31c0,4.22,2.01,6.34,6.03,6.34s6.17-2.12,6.17-6.34V20.16h11.98Zm-56.09-9.31c0-1.83,.65-3.39,1.95-4.69,1.3-1.3,2.86-1.95,4.69-1.95s3.45,.64,4.73,1.91,1.91,2.83,1.91,4.66-.64,3.38-1.91,4.66-2.83,1.91-4.66,1.91-3.4-.64-4.73-1.91-1.99-2.8-1.99-4.58Zm.43,45.77V25l11.84-6.21V56.62h-11.84Zm-27.94,0V24.92l11.33-6.22v6.38c.87-1.2,1.65-2.11,2.35-2.71,.7-.6,1.6-1.17,2.71-1.7,1.88-.87,3.63-1.3,5.27-1.3,1.3,0,2.82,.17,4.55,.51l-3.1,11.41c-1.3-.58-2.38-.87-3.25-.87-1.73,0-3.25,.46-4.55,1.37-2.21,1.59-3.32,4.31-3.32,8.16v16.68h-11.98Zm-19.92-45.77c0-1.83,.65-3.39,1.95-4.69,1.3-1.3,2.86-1.95,4.69-1.95s3.45,.64,4.73,1.91,1.91,2.83,1.91,4.66-.64,3.38-1.91,4.66-2.83,1.91-4.66,1.91-3.4-.64-4.73-1.91c-1.32-1.28-1.99-2.8-1.99-4.58Zm.43,45.77V25l11.84-6.21V56.62h-11.84Zm-36.67-2.24l2.8-8.66c2.74,1.93,5.01,3.08,6.8,3.47,.43,.14,.99,.26,1.66,.36,.67,.1,1.23,.14,1.66,.14,1.73,0,3.13-.39,4.19-1.16,1.06-.77,1.59-1.78,1.59-3.03,0-.96-.29-1.68-.87-2.17-.58-.48-1.68-.94-3.32-1.37l-2.89-.72-3.03-.94c-4.96-1.83-7.44-4.98-7.44-9.46,0-3.51,1.46-6.38,4.37-8.59,2.91-2.21,6.68-3.32,11.3-3.32,1.83,0,3.66,.14,5.49,.43,1.01,.24,1.88,.46,2.6,.65,1.25,.39,2.84,1.03,4.76,1.95l-2.67,7.87c-1.26-.67-2.13-1.13-2.61-1.37-1.17-.58-2.29-1.02-3.38-1.34-1.08-.31-2.19-.47-3.3-.47-1.36,0-2.45,.32-3.3,.97-.85,.65-1.28,1.5-1.28,2.56,0,1.78,1.48,3.03,4.43,3.75l3.04,.79c1.97,.53,3.96,1.23,5.94,2.09,1.44,.82,2.56,1.96,3.37,3.43,.79,1.47,1.19,3.12,1.19,4.94,0,3.95-1.46,7.06-4.37,9.35-2.91,2.29-6.87,3.43-11.87,3.43-2.02,0-4.14-.19-6.35-.58-1.78-.38-3.12-.73-4.01-1.05-.89-.31-2.39-.97-4.51-1.99Z"/>
    </clipPath>
    <linearGradient id="Gradiente_Sirius-2" data-name="Gradiente Sirius" x1="400.58" y1="37.7" x2="87.99" y2="37.69" xlink:href="#Gradiente_Sirius"/>
  </defs>
  <g id="Camada_1-2" data-name="Camada 1">
    <g class="cls-2">
      <rect class="cls-3" x="-.01" y="0" width="74.29" height="74.29"/>
    </g>
    <g class="cls-4">
      <rect class="cls-5" x="92.24" y="4.21" width="310.34" height="66.98"/>
    </g>
  </g>
</svg>