<?xml version="1.0" encoding="UTF-8"?>
<svg id="Camada_2" data-name="Camada 2" xmlns="http://www.w3.org/2000/svg" xmlns:xlink="http://www.w3.org/1999/xlink" viewBox="0 0 351.44 163.04">
  <defs>
    <style>
      .cls-1 {
        fill: none;
      }

      .cls-2 {
        clip-path: url(#clippath);
      }

      .cls-3 {
        fill: url(#Gradiente_sem_nome_2);
      }

      .cls-4 {
        clip-path: url(#clippath-1);
      }

      .cls-5 {
        fill: url(#Gradiente_sem_nome_2-2);
      }
    </style>
    <clipPath id="clippath">
      <path class="cls-1" d="M182.65,84.07c2.56-1.75,4.66-3.72,6.25-6.21,1.71-2.69,2.63-5.64,2.93-8.8,.3-3.16,.12-6.25-1.03-9.24-1.33-3.46-3.51-6.27-6.81-7.98-2-1.03-4.16-1.8-6.31-2.46-3.63-1.12-7.33-2.04-10.99-3.08-1.91-.54-3.71-1.32-5.14-2.78-2.1-2.13-1.68-5.84,.63-7.66,1.61-1.27,3.47-1.78,5.5-1.85,4.58-.16,8.69,1.37,12.7,3.36,1.26,.62,2.49,1.3,3.74,1.96,.16,.09,.34,.16,.52,.25,.06-.15,.12-.26,.16-.37,1.54-4.49,3.08-8.98,4.65-13.57-1.13-.51-2.26-1.01-3.38-1.52-3.22-1.46-6.6-2.41-10.05-3.11-1.27-.26-2.58-.37-3.87-.43-2.59-.13-5.18-.32-7.76-.23-5.47,.19-10.72,1.32-15.5,4.14-3.5,2.06-6.43,4.69-8.31,8.34-1.2,2.32-1.8,4.8-1.91,7.43-.1,2.52,.15,4.98,1.08,7.33,1.43,3.62,4.05,6.17,7.34,8.14,2.71,1.62,5.69,2.56,8.7,3.4,2.7,.76,5.43,1.4,8.12,2.17,1.14,.33,2.26,.78,3.34,1.3,1.69,.81,2.47,2.22,2.53,4.1,.09,2.66-1.14,4.54-3.31,5.9-1.66,1.04-3.5,1.51-5.43,1.61-5.56,.3-10.56-1.43-15.24-4.26-1.38-.84-2.73-1.72-4.19-2.65-1.07,3.23-2.12,6.41-3.24,9.79-.6-.85-1.18-1.56-1.63-2.34-1.88-3.25-2.75-6.75-2.74-10.53,.05-15.15,0-30.31,.04-45.46,0-3.79,1.24-7.25,3.39-10.37,2.08-3.03,4.8-5.27,8.16-6.74C148.23,.45,151.06,0,154.01,0c15.11,.04,30.22,0,45.33,.04,3.78,.01,7.22,1.25,10.35,3.38,3.1,2.11,5.36,4.92,6.85,8.33,.93,2.13,1.49,4.39,1.49,6.74,.01,15.72,.03,31.45-.01,47.17,0,3.45-1.12,6.64-2.98,9.55-2,3.13-4.7,5.49-8.05,7.08-2.3,1.09-4.73,1.78-7.28,1.8-5.54,.05-11.07,.02-16.61,.02-.1,0-.2-.01-.45-.03m3.83-64.18c6.38,1.78,9.83,6.15,11.22,12.44,1.36-6.32,4.84-10.65,11.22-12.45-2.95-.84-5.49-2.25-7.48-4.54-1.97-2.26-3.09-4.94-3.73-7.88-1.39,6.28-4.84,10.63-11.22,12.43Zm20.68-12.71c-.38,1.54-1.24,2.55-2.83,3.1,1.58,.59,2.46,1.56,2.89,3.05,.52-1.41,1.33-2.5,2.76-2.97-.62-.46-1.23-.78-1.66-1.26-.45-.5-.72-1.16-1.16-1.92Zm-20.98,3.54c-.43,.75-.68,1.4-1.11,1.88-.44,.5-1.06,.84-1.67,1.3,1.42,.51,2.24,1.56,2.72,2.96,.45-1.46,1.31-2.46,2.7-3.05-1.43-.57-2.23-1.61-2.64-3.1Zm20.36,17.76c1.49,.54,2.23,1.67,2.75,3.04,.43-1.47,1.32-2.46,2.71-3.08-1.49-.54-2.26-1.63-2.74-3.05-.48,1.43-1.27,2.52-2.73,3.08Z"/>
    </clipPath>
    <linearGradient id="Gradiente_sem_nome_2" data-name="Gradiente sem nome 2" x1="215.72" y1="42.45" x2="139.97" y2="41.7" gradientUnits="userSpaceOnUse">
      <stop offset="0" stop-color="#08e9f7"/>
      <stop offset="1" stop-color="#0e4295"/>
    </linearGradient>
    <clipPath id="clippath-1">
      <path class="cls-1" d="M303.12,105.25h14.63l8.09,22.73c.22,.65,.42,1.49,.61,2.49s.37,2.33,.53,3.96l.49-3.11,.74-3.52,8.26-22.56h14.96l-23.95,56.08h-15.21l7.77-16.1-16.92-39.98Zm-24.61,9.65c-2.67,0-4.82,1.01-6.46,3.04-1.63,2.02-2.45,4.67-2.45,7.96s.82,5.83,2.45,7.79c1.64,1.98,3.81,2.96,6.54,2.96,1.42,0,2.73-.31,3.92-.94,1.2-.63,2.04-1.44,2.53-2.43,.49-.98,.84-2.06,1.06-3.24,.22-1.17,.33-2.72,.33-4.63s-.08-3.43-.25-4.39c-.16-.97-.52-1.85-1.06-2.67-1.47-2.3-3.68-3.45-6.62-3.45Zm8.58-5.15v-4.5h12.92v41.28h-12.92v-4.58c-.33,.49-.64,.9-.94,1.2-.3,.31-.5,.52-.61,.63-1.2,1.21-2.83,2.18-4.9,2.9-2.07,.72-4.28,1.08-6.62,1.08-5.5,0-9.92-1.96-13.24-5.9-3.32-3.92-4.99-9.14-4.99-15.64s1.77-11.42,5.31-15.56c3.54-4.16,8.04-6.23,13.49-6.23,2.02,0,4.17,.35,6.46,1.06,1.47,.55,2.55,1.05,3.23,1.51,.68,.46,1.62,1.38,2.82,2.74Zm-68.02,16.35v.57c0,2.29,.08,3.84,.25,4.66,.16,.82,.57,1.72,1.23,2.7,.65,.98,1.57,1.77,2.74,2.37,1.17,.6,2.47,.9,3.88,.9,2.67,0,4.81-.97,6.42-2.9,1.61-1.93,2.41-4.51,2.41-7.73s-.82-5.91-2.45-7.93c-1.63-2.02-3.79-3.02-6.46-3.02-2.94,0-5.12,1.09-6.54,3.27-.55,.82-.93,1.73-1.14,2.74-.22,1.01-.33,2.47-.33,4.37Zm-13.41,36.94v-57.78h12.83v4.91l1.88-1.96c2.94-2.56,6.68-3.84,11.2-3.84,5.5,0,9.95,1.99,13.33,5.98,3.38,3.98,5.07,9.25,5.07,15.8s-1.76,11.53-5.26,15.56c-3.5,4.05-8.03,6.06-13.56,6.06-2.63,0-4.89-.45-6.79-1.34-1.89-.89-3.65-2.21-5.3-3.98v14.37l-13.41,6.21Zm-41.86-19.03l3.17-9.81c3.11,2.18,5.67,3.49,7.7,3.92,.49,.16,1.12,.3,1.88,.41,.76,.11,1.39,.16,1.88,.16,1.96,0,3.54-.44,4.74-1.31,1.2-.87,1.8-2.02,1.8-3.43,0-1.09-.33-1.91-.98-2.45-.65-.55-1.91-1.06-3.76-1.55l-3.27-.82-3.43-1.06c-5.61-2.07-8.42-5.64-8.42-10.71,0-3.98,1.65-7.22,4.95-9.73,3.3-2.51,7.56-3.76,12.79-3.76,2.07,0,4.14,.16,6.21,.49,1.14,.27,2.13,.52,2.94,.74,1.42,.44,3.22,1.17,5.4,2.21l-3.02,8.91c-1.43-.76-2.41-1.28-2.96-1.55-1.32-.65-2.59-1.16-3.83-1.51-1.23-.35-2.48-.53-3.73-.53-1.54,0-2.78,.37-3.73,1.1-.97,.74-1.44,1.7-1.44,2.9,0,2.02,1.68,3.43,5.01,4.25l3.45,.9c2.23,.6,4.48,1.39,6.73,2.37,1.64,.93,2.9,2.22,3.82,3.88,.9,1.66,1.35,3.53,1.35,5.6,0,4.47-1.65,8-4.95,10.59-3.3,2.59-7.78,3.88-13.45,3.88-2.29,0-4.69-.22-7.19-.65-2.02-.44-3.53-.83-4.54-1.19-1.01-.35-2.71-1.1-5.11-2.25Zm-5.56-38.75v26.65c0,5.12-1.77,9.07-5.31,11.85-3.54,2.78-8.58,4.17-15.12,4.17s-11.53-1.39-15.12-4.17c-3.6-2.78-5.4-6.73-5.4-11.85v-26.65h13.57v24.13c0,4.78,2.28,7.18,6.83,7.18s6.99-2.4,6.99-7.18v-24.13h13.57Zm-63.52-10.55c0-2.07,.74-3.84,2.21-5.31,1.47-1.47,3.24-2.21,5.31-2.21s3.91,.72,5.35,2.17c1.44,1.44,2.17,3.2,2.17,5.27s-.72,3.83-2.17,5.27c-1.44,1.44-3.2,2.17-5.27,2.17s-3.86-.72-5.35-2.17c-1.5-1.44-2.25-3.17-2.25-5.19Zm.49,51.83v-35.81l13.41-7.03v42.84h-13.41Zm-31.64,0v-35.9l12.83-7.04v7.22c.98-1.36,1.87-2.38,2.66-3.07,.79-.68,1.81-1.32,3.07-1.92,2.13-.98,4.11-1.47,5.97-1.47,1.47,0,3.19,.19,5.15,.57l-3.52,12.92c-1.47-.65-2.7-.98-3.68-.98-1.96,0-3.68,.52-5.15,1.55-2.51,1.8-3.76,4.88-3.76,9.24v18.88h-13.57Zm-22.56-51.83c0-2.07,.74-3.84,2.21-5.31,1.47-1.47,3.24-2.21,5.31-2.21s3.91,.72,5.35,2.17,2.17,3.2,2.17,5.27-.72,3.83-2.17,5.27c-1.44,1.44-3.2,2.17-5.27,2.17s-3.86-.72-5.35-2.17c-1.5-1.44-2.25-3.17-2.25-5.19Zm.49,51.83v-35.81l13.41-7.03v42.84h-13.41ZM0,144l3.17-9.81c3.11,2.18,5.67,3.49,7.7,3.92,.49,.16,1.12,.3,1.88,.41,.76,.11,1.39,.16,1.88,.16,1.96,0,3.54-.44,4.74-1.31,1.2-.87,1.8-2.02,1.8-3.43,0-1.09-.33-1.91-.98-2.45-.65-.55-1.91-1.06-3.76-1.55l-3.27-.82-3.43-1.06c-5.61-2.07-8.42-5.64-8.42-10.71,0-3.98,1.65-7.22,4.95-9.73,3.3-2.51,7.56-3.76,12.79-3.76,2.07,0,4.14,.16,6.21,.49,1.14,.27,2.13,.52,2.94,.74,1.42,.44,3.22,1.17,5.4,2.21l-3.02,8.91c-1.43-.76-2.41-1.28-2.96-1.55-1.32-.65-2.59-1.16-3.83-1.51-1.23-.35-2.48-.53-3.73-.53-1.54,0-2.78,.37-3.73,1.1-.97,.74-1.44,1.7-1.44,2.9,0,2.02,1.68,3.43,5.01,4.25l3.45,.9c2.23,.6,4.48,1.39,6.73,2.37,1.64,.93,2.9,2.22,3.82,3.88,.9,1.66,1.35,3.53,1.35,5.6,0,4.47-1.65,8-4.95,10.59-3.3,2.59-7.78,3.88-13.45,3.88-2.29,0-4.69-.22-7.19-.65-2.02-.44-3.53-.83-4.54-1.19-1.01-.35-2.71-1.1-5.11-2.25Z"/>
    </clipPath>
    <linearGradient id="Gradiente_sem_nome_2-2" data-name="Gradiente sem nome 2" x1="349.18" y1="125.11" x2="-4.82" y2="125.11" xlink:href="#Gradiente_sem_nome_2"/>
  </defs>
  <g id="Camada_1-2" data-name="Camada 1">
    <g class="cls-2">
      <rect class="cls-3" x="133.94" y="0" width="84.13" height="84.13"/>
    </g>
    <g class="cls-4">
      <rect class="cls-5" y="87.19" width="351.44" height="75.85"/>
    </g>
  </g>
</svg>